<svg version="1" xmlns="http://www.w3.org/2000/svg" width="266.667" height="266.667" viewBox="0 0 200.000000 200.000000"><path d="M87.8 13c-20.4 3.2-34.9 10.3-49.2 23.9-12.2 11.7-20.4 25.5-24.7 41.6-3.1 11.4-3.1 31.6 0 43 13.4 49.8 64.9 77.6 113.6 61.4 14.2-4.7 22.6-10 34-21.4 11.2-11.2 17-20.3 21.5-33.8 14.3-42.7-6.2-89.1-47.7-107.9-13-5.8-34.2-8.9-47.5-6.8zm26.8 3.1c35.5 6.2 63.5 34.3 69.7 69.9.3 1.4.8 6.8 1.2 12 1.1 16-3.7 33.7-13.2 48.5-5.9 9-19.2 21.9-28.3 27.3-14.2 8.5-32 12.9-48.5 11.9-20.4-1.2-37.8-8.8-53.4-23.3-22-20.3-31.4-49.5-25.6-78.7 2.3-11.4 5.8-19.8 12.3-29.7 16.3-24.7 41.4-38.7 70.3-38.9 5.2-.1 12.2.4 15.5 1z"/><path d="M62.2 27.1C36 40.2 19.8 65.4 17 97.5c-2.3 26.2 12.2 55.3 35.6 71.5 15.5 10.7 32.9 15.6 51.9 14.7 20.6-1 37.5-8.2 52.3-22.2 16.3-15.4 25.4-33.7 26.9-54.2l.6-7.4-4.8.3-4.8.3-.3 9.5c-.3 10.4-1.6 15.5-6.3 24.8-5.7 11.4-21 25-29.9 26.8-3 .6-2.4-.2 7.1-9.7 8.9-9 11-11.7 15.1-20 6.6-13.5 10.3-31.9 6.2-31.9-.6 0-15.4-14.3-32.8-31.7L102 36.5l-31 31c-17 17-31 31.3-31 31.7 0 .5 27.9.8 62 .8s61.9.3 61.8.7c0 .5-14 14.5-31 31.3L102 162.5l-31.3-31.2-31.2-31.2-9-.7c-9.9-.7-11-1-9.7-2.7.6-.7 1.2-4 1.5-7.4.3-3.4 1.3-7.6 2.1-9.2.9-1.7 1.6-3.6 1.6-4.3 0-1.6 7.3-15.8 10.6-20.7C39.5 50.8 51.8 38 53 38c.5 0 1.7-1.1 2.6-2.5.8-1.3 3.9-3.6 6.7-5 2.8-1.4 4.7-2.5 4.1-2.5-1.3 0 4.6-3.5 8.1-4.8 2.9-1 2.9-1 .4-1.1-1.4-.1-7.1 2.2-12.7 5z"/></svg>